# xmcd
#
# Track frame offsets: 
#        182
#        10572
#        23150
#        40995
#        53382
#        66732
#        87585
#        101005
#        113190
#        127180
#
# Disc length: 1880 seconds
#
# Revision: 0
# Processed by: cddbd v1.5.2PL0 Copyright (c) Steve Scherf et al.
# Submitted via: ExactAudioCopyFreeDBPlugin 1.0
#
DISCID=8407560a
DTITLE=David Jones - Bridges
DYEAR=1900
DGENRE=Country
TTITLE0=Bridges
TTITLE1=I Found A Honky-Tonk Angel
TTITLE2=Let's Stop Living Together, Alone
TTITLE3=You Don't Miss What You Got
TTITLE4=I'm All That I Got Left
TTITLE5=Blues After Sundown
TTITLE6=Nothing Lasts Forever
TTITLE7=She's Got That Loved On Look
TTITLE8=You're No Longer Mine
TTITLE9=The Tears Outweigh The Whiskey
EXTD=
EXTT0=
EXTT1=
EXTT2=
EXTT3=
EXTT4=
EXTT5=
EXTT6=
EXTT7=
EXTT8=
EXTT9=
PLAYORDER=
